<svg width="30" height="30" viewBox="0 0 30 30" fill="none" xmlns="http://www.w3.org/2000/svg">
<circle cx="15" cy="15" r="15" fill="#0126A9"/>
<path d="M14.3432 11.4116L14.3082 11.4488L14.3462 11.4829L17.9993 14.7708H8.75464H8.70464V14.8208V16.3208V16.3708H8.75464H17.9993L14.3462 19.6586L14.3082 19.6928L14.3432 19.73L15.3991 20.855L15.4334 20.8916L15.4699 20.8571L20.6161 15.992C20.6162 15.9919 20.6164 15.9918 20.6165 15.9917C20.8673 15.7622 20.8674 15.3794 20.6164 15.1503C20.6163 15.1502 20.6162 15.1501 20.6161 15.15L15.4699 10.2844L15.4334 10.25L15.3991 10.2866L14.3432 11.4116Z" fill="white" stroke="#2661F6" stroke-width="0.1"/>
</svg>
