<svg width="53" height="53" viewBox="0 0 53 53" fill="none" xmlns="http://www.w3.org/2000/svg">
<g clip-path="url(#clip0)">
<circle cx="27.5" cy="27" r="18.5" fill="#0137FF"/>
<path d="M49.4469 13.198C47.0771 9.13818 43.8627 5.92372 39.8027 3.55406C35.742 1.18453 31.3092 0 26.5008 0C21.693 0 17.2589 1.18453 13.1989 3.55406C9.13866 5.92336 5.92421 9.13781 3.55443 13.198C1.18453 17.2585 0 21.6926 0 26.5001C0 31.3078 1.18489 35.7413 3.55406 39.802C5.92372 43.8618 9.13818 47.0763 13.1984 49.4462C17.2589 51.8156 21.6926 53.0002 26.5004 53.0002C31.3081 53.0002 35.7424 51.8156 39.8026 49.4462C43.8625 47.0771 47.0769 43.8618 49.4464 39.802C51.8156 35.7416 53 31.3076 53 26.5001C53.0001 21.6922 51.8156 17.2579 49.4469 13.198ZM43.7191 31.3646L40.1993 34.8851C39.7617 35.3219 39.2444 35.5406 38.6467 35.5406C38.0487 35.5406 37.5304 35.3219 37.094 34.8851L26.5004 24.2916L15.9077 34.8851C15.4706 35.3219 14.9531 35.5406 14.355 35.5406C13.7568 35.5406 13.2391 35.3219 12.802 34.8851L9.2826 31.3646C8.84546 30.9287 8.62683 30.4101 8.62683 29.812C8.62683 29.2147 8.84546 28.6968 9.2826 28.2592L24.9482 12.5941C25.3853 12.157 25.9027 11.9386 26.5008 11.9386C27.099 11.9386 27.6173 12.157 28.0534 12.5941L43.7191 28.2592C44.1557 28.6968 44.3746 29.2146 44.3746 29.812C44.3746 30.41 44.1562 30.9286 43.7191 31.3646Z" fill="white"/>
</g>
<defs>
<clipPath id="clip0">
<rect width="53" height="53" fill="white"/>
</clipPath>
</defs>
</svg>
