<svg width="132" height="46" viewBox="0 0 132 46" fill="none" xmlns="http://www.w3.org/2000/svg">
<g clip-path="url(#clip0)">
<path d="M23.4912 2.96094C24.3088 2.96094 24.9717 2.29813 24.9717 1.4805C24.9717 0.662863 24.3088 3.05176e-05 23.4912 3.05176e-05C22.6736 3.05176e-05 22.0107 0.662863 22.0107 1.4805C22.0107 2.29813 22.6736 2.96094 23.4912 2.96094Z" fill="url(#paint0_linear)"/>
<path d="M39.4062 15.0876C41.1016 15.0876 42.476 13.7132 42.476 12.0178C42.476 10.3225 41.1016 8.94806 39.4062 8.94806C37.7108 8.94806 36.3364 10.3225 36.3364 12.0178C36.3364 13.7132 37.7108 15.0876 39.4062 15.0876Z" fill="url(#paint1_linear)"/>
<path d="M1.89411 45.5458C2.7358 45.5458 3.41811 44.8635 3.41811 44.0218C3.41811 43.1801 2.7358 42.4978 1.89411 42.4978C1.05243 42.4978 0.370117 43.1801 0.370117 44.0218C0.370117 44.8635 1.05243 45.5458 1.89411 45.5458Z" fill="url(#paint2_linear)"/>
<path d="M35.2697 22.86C34.856 21.6844 33.7239 20.8571 32.4176 20.8571C31.8516 20.8571 31.329 21.0095 30.8936 21.2707L24.384 25.5379C24.384 25.5379 24.3622 25.5379 24.3622 25.5597C23.8832 25.8863 23.2954 26.0605 22.6858 26.0605C21.0094 26.0605 19.6378 24.6889 19.6378 23.0125C19.6378 21.8368 20.2909 20.8353 21.2489 20.3128L25.1895 17.7438C25.8862 17.1777 26.3434 16.3286 26.3434 15.3489C26.3434 13.9338 25.3637 12.7363 24.0356 12.388C22.7076 12.0397 21.3142 11.8437 19.8555 11.8437C10.8422 11.8437 3.52697 19.1589 3.52697 28.1723C3.52697 28.9343 3.59228 29.6963 3.67936 30.4365C3.67936 30.4365 3.70114 30.7195 3.70114 30.7848C3.70114 31.3944 3.39634 31.9387 2.93914 32.2653L1.61108 33.1362C0.653141 33.6587 0 34.6601 0 35.8358C0 37.5122 1.3716 38.8838 3.048 38.8838C3.61405 38.8838 4.15834 38.7314 4.61554 38.4484L13.433 32.7007C13.8902 32.4177 14.4344 32.2435 15.0223 32.2435C16.6987 32.2435 18.0703 33.6151 18.0703 35.2915C18.0703 36.4672 17.4171 37.4686 16.4374 37.9912L15.24 38.7749C14.478 39.3192 13.999 40.2119 13.999 41.2133C13.999 42.672 15.044 43.8912 16.4156 44.1525C17.526 44.392 18.6799 44.5226 19.8555 44.5226C28.8689 44.5226 36.1841 37.2074 36.1841 28.194C36.1841 26.2999 35.8575 24.5147 35.2697 22.86ZM14.3474 22.7294C13.52 22.7294 12.8451 22.0545 12.8451 21.2272C12.8451 20.3999 13.52 19.725 14.3474 19.725C15.1747 19.725 15.8496 20.3999 15.8496 21.2272C15.8278 22.0545 15.1747 22.7294 14.3474 22.7294Z" fill="url(#paint3_linear)"/>
<path d="M51.816 31.1549V33.0926H45.154H44.6968V23.9486H46.7868H51.816V25.8862H46.7868V27.5409H51.8378V29.4785H46.7868V31.1549H51.816V31.1549Z" fill="#333333"/>
<path d="M53.7539 31.9822L54.6901 30.2405C55.5827 31.0461 56.693 31.3726 58.1082 31.3726C59.3492 31.3726 60.0894 31.0025 60.0894 30.3058C60.0894 29.8051 59.6757 29.6962 57.7163 29.4132C55.8004 29.1302 53.9063 28.8471 53.9063 26.7789C53.9063 24.9065 55.5174 23.7309 57.8469 23.7309C59.9588 23.7309 61.265 24.6453 61.8093 25.8209L60.1111 26.7136C59.8281 25.9733 59.0226 25.5814 57.8034 25.5814C56.4753 25.5814 55.9964 26.0169 55.9964 26.6047C55.9964 27.1272 56.4318 27.3014 58.1953 27.5409C60.1982 27.8239 62.1577 28.1069 62.1577 30.197C62.1577 32.2 60.3724 33.2232 57.9558 33.2232C56.3447 33.245 54.9296 32.8531 53.7539 31.9822Z" fill="#333333"/>
<path d="M71.6498 25.8645H68.5147V33.0708H66.4246V25.8645H63.2896V23.9268H68.5147H71.6498V25.8645Z" fill="#333333"/>
<path d="M73.4785 29.435V23.9486H75.5686V29.435C75.5686 30.6977 76.3959 31.3073 77.6804 31.3073C78.9431 31.3073 79.7487 30.6977 79.7487 29.435V23.9486H81.8387V29.435C81.8387 32.004 80.0535 33.2667 77.6586 33.2667C75.242 33.245 73.4785 32.004 73.4785 29.435Z" fill="#333333"/>
<path d="M93.0726 28.5206C93.0726 31.1114 91.0261 33.0926 88.3047 33.0926H84.5818H84.4512V23.9486H86.5412H88.3047C91.0261 23.9486 93.0726 25.908 93.0726 28.5206ZM90.9826 28.5206C90.9826 26.9748 89.8722 25.8862 88.3047 25.8862H86.5412V31.1549H88.3047C89.8722 31.1549 90.9826 30.0663 90.9826 28.5206Z" fill="#333333"/>
<path d="M97.5144 23.9486V33.0926H95.4243V23.9486H97.5144Z" fill="#333333"/>
<path d="M99.8657 28.5206C99.8657 25.9298 101.782 23.7744 104.764 23.7744C107.747 23.7744 109.663 25.908 109.663 28.5206C109.663 31.1332 107.747 33.2668 104.764 33.2668C101.782 33.2668 99.8657 31.1114 99.8657 28.5206ZM107.551 28.5206C107.551 26.9313 106.484 25.7339 104.764 25.7339C103.044 25.7339 101.978 26.9313 101.978 28.5206C101.978 30.0881 103.044 31.3073 104.764 31.3073C106.462 31.2856 107.551 30.0881 107.551 28.5206Z" fill="#333333"/>
<path d="M121.223 29.3262C120.744 29.718 120.156 29.9575 119.373 29.9575C117.391 29.9575 116.107 28.8689 116.107 26.9966V26.9748C116.107 25.1243 117.522 23.7744 119.59 23.7744C120.81 23.7744 121.528 24.0792 122.225 24.7759C122.878 25.4291 123.313 26.4305 123.313 28.2158V28.2376C123.313 31.1985 121.92 33.2232 119.307 33.2232C117.979 33.2232 117.065 32.7878 116.303 32.1346L117.37 30.6106C118.045 31.1549 118.589 31.3944 119.373 31.3944C120.744 31.4162 121.136 30.1099 121.223 29.3262ZM121.267 26.9313C121.267 26.104 120.657 25.5162 119.656 25.5162C118.654 25.5162 118.11 26.0822 118.11 26.9095V26.9313C118.11 27.7368 118.72 28.3029 119.699 28.3029C120.679 28.3029 121.267 27.7151 121.267 26.9313Z" fill="#333333"/>
<path d="M125.186 31.4815L128.234 28.9778C129.366 28.0416 129.823 27.5409 129.823 26.7789C129.823 26.0169 129.322 25.5815 128.604 25.5815C127.907 25.5815 127.406 25.9733 126.731 26.8006L125.316 25.6685C126.209 24.4493 127.101 23.7744 128.734 23.7744C130.628 23.7744 131.891 24.8848 131.891 26.6047V26.6265C131.891 28.1505 131.107 28.9125 129.496 30.1752L128.016 31.3291H132V33.0708H125.229V31.4815H125.186V31.4815Z" fill="#333333"/>
</g>
<defs>
<linearGradient id="paint0_linear" x1="23.4912" y1="3.05176e-05" x2="23.4912" y2="2.96094" gradientUnits="userSpaceOnUse">
<stop stop-color="#2422E3"/>
<stop offset="1" stop-color="#6C32F7"/>
</linearGradient>
<linearGradient id="paint1_linear" x1="39.4062" y1="8.94806" x2="39.4062" y2="15.0876" gradientUnits="userSpaceOnUse">
<stop stop-color="#2422E3"/>
<stop offset="1" stop-color="#6C32F7"/>
</linearGradient>
<linearGradient id="paint2_linear" x1="1.89411" y1="42.4978" x2="1.89411" y2="45.5458" gradientUnits="userSpaceOnUse">
<stop stop-color="#2422E3"/>
<stop offset="1" stop-color="#6C32F7"/>
</linearGradient>
<linearGradient id="paint3_linear" x1="18.092" y1="11.8437" x2="18.092" y2="44.5226" gradientUnits="userSpaceOnUse">
<stop stop-color="#2422E3"/>
<stop offset="1" stop-color="#6C32F7"/>
</linearGradient>
<clipPath id="clip0">
<rect width="132" height="46" fill="white"/>
</clipPath>
</defs>
</svg>
