<svg width="132" height="46" viewBox="0 0 132 46" fill="none" xmlns="http://www.w3.org/2000/svg">
<g clip-path="url(#clip0)">
<path d="M23.4913 2.9609C24.3089 2.9609 24.9718 2.2981 24.9718 1.48047C24.9718 0.662833 24.3089 0 23.4913 0C22.6737 0 22.0109 0.662833 22.0109 1.48047C22.0109 2.2981 22.6737 2.9609 23.4913 2.9609Z" fill="url(#paint0_linear)"/>
<path d="M39.4062 15.0876C41.1016 15.0876 42.476 13.7132 42.476 12.0178C42.476 10.3225 41.1016 8.94806 39.4062 8.94806C37.7108 8.94806 36.3364 10.3225 36.3364 12.0178C36.3364 13.7132 37.7108 15.0876 39.4062 15.0876Z" fill="url(#paint1_linear)"/>
<path d="M1.89411 45.5458C2.7358 45.5458 3.41811 44.8635 3.41811 44.0218C3.41811 43.1801 2.7358 42.4978 1.89411 42.4978C1.05243 42.4978 0.370117 43.1801 0.370117 44.0218C0.370117 44.8635 1.05243 45.5458 1.89411 45.5458Z" fill="url(#paint2_linear)"/>
<path d="M35.2697 22.86C34.856 21.6844 33.7239 20.8571 32.4176 20.8571C31.8516 20.8571 31.329 21.0095 30.8936 21.2707L24.384 25.5379C24.384 25.5379 24.3622 25.5379 24.3622 25.5597C23.8832 25.8862 23.2954 26.0604 22.6858 26.0604C21.0094 26.0604 19.6378 24.6888 19.6378 23.0124C19.6378 21.8368 20.2909 20.8353 21.2489 20.3128L25.1895 17.7437C25.8862 17.1777 26.3434 16.3286 26.3434 15.3489C26.3434 13.9337 25.3637 12.7363 24.0356 12.388C22.7076 12.0396 21.3142 11.8437 19.8555 11.8437C10.8422 11.8437 3.52697 19.1589 3.52697 28.1722C3.52697 28.9342 3.59228 29.6962 3.67936 30.4365C3.67936 30.4365 3.70114 30.7195 3.70114 30.7848C3.70114 31.3944 3.39634 31.9387 2.93914 32.2653L1.61108 33.1361C0.653141 33.6586 0 34.6601 0 35.8358C0 37.5122 1.3716 38.8838 3.048 38.8838C3.61405 38.8838 4.15834 38.7314 4.61554 38.4483L13.433 32.7007C13.8902 32.4177 14.4344 32.2435 15.0223 32.2435C16.6987 32.2435 18.0703 33.6151 18.0703 35.2915C18.0703 36.4671 17.4171 37.4686 16.4374 37.9911L15.24 38.7749C14.478 39.3192 13.999 40.2118 13.999 41.2133C13.999 42.672 15.044 43.8912 16.4156 44.1524C17.526 44.3919 18.6799 44.5226 19.8555 44.5226C28.8689 44.5226 36.1841 37.2074 36.1841 28.194C36.1841 26.2999 35.8575 24.5146 35.2697 22.86ZM14.3474 22.7294C13.52 22.7294 12.8451 22.0545 12.8451 21.2272C12.8451 20.3998 13.52 19.7249 14.3474 19.7249C15.1747 19.7249 15.8496 20.3998 15.8496 21.2272C15.8278 22.0545 15.1747 22.7294 14.3474 22.7294Z" fill="url(#paint3_linear)"/>
<path d="M51.816 31.1549V33.0925H45.1539H44.6967V23.9485H46.7868H51.816V25.8862H46.7868V27.5408H51.8377V29.4785H46.7868V31.1549H51.816V31.1549Z" fill="url(#paint4_linear)"/>
<path d="M53.7536 31.9822L54.6898 30.2405C55.5824 31.046 56.6928 31.3726 58.1079 31.3726C59.3489 31.3726 60.0891 31.0025 60.0891 30.3058C60.0891 29.8051 59.6754 29.6962 57.716 29.4132C55.8001 29.1301 53.906 28.8471 53.906 26.7788C53.906 24.9065 55.5171 23.7308 57.8467 23.7308C59.9585 23.7308 61.2648 24.6452 61.809 25.8209L60.1109 26.7135C59.8278 25.9733 59.0223 25.5814 57.8031 25.5814C56.4751 25.5814 55.9961 26.0168 55.9961 26.6047C55.9961 27.1272 56.4315 27.3013 58.195 27.5408C60.198 27.8239 62.1574 28.1069 62.1574 30.197C62.1574 32.1999 60.3721 33.2232 57.9555 33.2232C56.3444 33.2449 54.9293 32.8531 53.7536 31.9822Z" fill="url(#paint5_linear)"/>
<path d="M71.6497 25.8645H68.5146V33.0708H66.4246V25.8645H63.2895V23.9268H68.5146H71.6497V25.8645Z" fill="url(#paint6_linear)"/>
<path d="M73.4785 29.435V23.9485H75.5686V29.435C75.5686 30.6977 76.3959 31.3073 77.6804 31.3073C78.9431 31.3073 79.7487 30.6977 79.7487 29.435V23.9485H81.8387V29.435C81.8387 32.004 80.0535 33.2667 77.6586 33.2667C75.242 33.2449 73.4785 32.004 73.4785 29.435Z" fill="url(#paint7_linear)"/>
<path d="M93.0728 28.5205C93.0728 31.1113 91.0262 33.0925 88.3048 33.0925H84.5819H84.4513V23.9485H86.5413H88.3048C91.0262 23.9485 93.0728 25.908 93.0728 28.5205ZM90.9827 28.5205C90.9827 26.9748 89.8724 25.8862 88.3048 25.8862H86.5413V31.1549H88.3048C89.8724 31.1549 90.9827 30.0663 90.9827 28.5205Z" fill="url(#paint8_linear)"/>
<path d="M97.5141 23.9485V33.0925H95.424V23.9485H97.5141Z" fill="url(#paint9_linear)"/>
<path d="M99.8654 28.5206C99.8654 25.9298 101.781 23.7745 104.764 23.7745C107.747 23.7745 109.663 25.9081 109.663 28.5206C109.663 31.1332 107.747 33.2668 104.764 33.2668C101.781 33.2668 99.8654 31.1114 99.8654 28.5206ZM107.551 28.5206C107.551 26.9313 106.484 25.7339 104.764 25.7339C103.044 25.7339 101.977 26.9313 101.977 28.5206C101.977 30.0882 103.044 31.3074 104.764 31.3074C106.462 31.2856 107.551 30.0882 107.551 28.5206Z" fill="url(#paint10_linear)"/>
<path d="M121.223 29.3262C120.744 29.7181 120.156 29.9575 119.373 29.9575C117.391 29.9575 116.107 28.869 116.107 26.9966V26.9749C116.107 25.1243 117.522 23.7745 119.59 23.7745C120.81 23.7745 121.528 24.0793 122.225 24.776C122.878 25.4291 123.313 26.4306 123.313 28.2158V28.2376C123.313 31.1985 121.92 33.2232 119.307 33.2232C117.979 33.2232 117.065 32.7878 116.303 32.1347L117.37 30.6107C118.045 31.155 118.589 31.3945 119.373 31.3945C120.744 31.4162 121.136 30.11 121.223 29.3262ZM121.267 26.9313C121.267 26.104 120.657 25.5162 119.656 25.5162C118.654 25.5162 118.11 26.0822 118.11 26.9095V26.9313C118.11 27.7369 118.72 28.3029 119.699 28.3029C120.679 28.3029 121.267 27.7151 121.267 26.9313Z" fill="url(#paint11_linear)"/>
<path d="M125.186 31.4815L128.234 28.9778C129.366 28.0416 129.823 27.5409 129.823 26.7789C129.823 26.0169 129.322 25.5815 128.604 25.5815C127.907 25.5815 127.406 25.9734 126.731 26.8007L125.316 25.6686C126.209 24.4494 127.101 23.7745 128.734 23.7745C130.628 23.7745 131.891 24.8848 131.891 26.6048V26.6265C131.891 28.1505 131.107 28.9125 129.496 30.1752L128.016 31.3291H132V33.0709H125.229V31.4815H125.186V31.4815Z" fill="url(#paint12_linear)"/>
</g>
<defs>
<linearGradient id="paint0_linear" x1="21.6823" y1="5.9126" x2="16.204" y2="19.35" gradientUnits="userSpaceOnUse">
<stop stop-color="white"/>
<stop offset="1" stop-color="#0000FF"/>
</linearGradient>
<linearGradient id="paint1_linear" x1="35.6551" y1="21.2081" x2="24.2956" y2="49.071" gradientUnits="userSpaceOnUse">
<stop stop-color="white"/>
<stop offset="1" stop-color="#0000FF"/>
</linearGradient>
<linearGradient id="paint2_linear" x1="0.0318653" y1="48.5843" x2="-5.60758" y2="62.4169" gradientUnits="userSpaceOnUse">
<stop stop-color="white"/>
<stop offset="1" stop-color="#0000FF"/>
</linearGradient>
<linearGradient id="paint3_linear" x1="-4.01553" y1="77.0998" x2="-60.0948" y2="229.407" gradientUnits="userSpaceOnUse">
<stop stop-color="white"/>
<stop offset="1" stop-color="#0000FF"/>
</linearGradient>
<linearGradient id="paint4_linear" x1="43.9042" y1="42.2081" x2="24.0505" y2="80.2389" gradientUnits="userSpaceOnUse">
<stop stop-color="white"/>
<stop offset="1" stop-color="#0000FF"/>
</linearGradient>
<linearGradient id="paint5_linear" x1="52.821" y1="42.6877" x2="33.7308" y2="84.1393" gradientUnits="userSpaceOnUse">
<stop stop-color="white"/>
<stop offset="1" stop-color="#0000FF"/>
</linearGradient>
<linearGradient id="paint6_linear" x1="62.3617" y1="42.1864" x2="44.3609" y2="82.5549" gradientUnits="userSpaceOnUse">
<stop stop-color="white"/>
<stop offset="1" stop-color="#0000FF"/>
</linearGradient>
<linearGradient id="paint7_linear" x1="72.5507" y1="42.5559" x2="53.9761" y2="83.4327" gradientUnits="userSpaceOnUse">
<stop stop-color="white"/>
<stop offset="1" stop-color="#0000FF"/>
</linearGradient>
<linearGradient id="paint8_linear" x1="83.4945" y1="42.2081" x2="65.8646" y2="82.9802" gradientUnits="userSpaceOnUse">
<stop stop-color="white"/>
<stop offset="1" stop-color="#0000FF"/>
</linearGradient>
<linearGradient id="paint9_linear" x1="95.1921" y1="42.2081" x2="74.5482" y2="53.7821" gradientUnits="userSpaceOnUse">
<stop stop-color="white"/>
<stop offset="1" stop-color="#0000FF"/>
</linearGradient>
<linearGradient id="paint10_linear" x1="98.7782" y1="42.7296" x2="81.6119" y2="86.1877" gradientUnits="userSpaceOnUse">
<stop stop-color="white"/>
<stop offset="1" stop-color="#0000FF"/>
</linearGradient>
<linearGradient id="paint11_linear" x1="115.307" y1="42.6426" x2="94.516" y2="81.537" gradientUnits="userSpaceOnUse">
<stop stop-color="white"/>
<stop offset="1" stop-color="#0000FF"/>
</linearGradient>
<linearGradient id="paint12_linear" x1="124.429" y1="42.3383" x2="103.529" y2="79.9161" gradientUnits="userSpaceOnUse">
<stop stop-color="white"/>
<stop offset="1" stop-color="#0000FF"/>
</linearGradient>
<clipPath id="clip0">
<rect width="132" height="46" fill="white"/>
</clipPath>
</defs>
</svg>
