<svg width="22" height="34" viewBox="0 0 22 34" fill="none" xmlns="http://www.w3.org/2000/svg">
<g clip-path="url(#clip0)">
<path d="M9.61253 0.10399C10.5832 0.10399 11.3532 0.397989 11.9225 0.985989C12.5012 1.57399 12.7905 2.39066 12.7905 3.43599V7.99999H10.4105V3.75799C10.4105 3.25399 10.2752 2.86666 10.0045 2.59599C9.7432 2.31599 9.3792 2.17599 8.91253 2.17599C8.44587 2.17599 8.0772 2.31599 7.80653 2.59599C7.5452 2.86666 7.41453 3.25399 7.41453 3.75799V7.99999H5.03453V3.75799C5.03453 3.25399 4.8992 2.86666 4.62853 2.59599C4.3672 2.31599 4.0032 2.17599 3.53653 2.17599C3.06986 2.17599 2.7012 2.31599 2.43053 2.59599C2.1692 2.86666 2.03853 3.25399 2.03853 3.75799V7.99999H-0.355469V0.187989H2.03853V1.16799C2.2812 0.841322 2.59853 0.584656 2.99053 0.397989C3.38253 0.201989 3.82587 0.10399 4.32053 0.10399C4.90853 0.10399 5.4312 0.229989 5.88853 0.481989C6.3552 0.733989 6.7192 1.09332 6.98053 1.55999C7.2512 1.13066 7.61986 0.780656 8.08653 0.509989C8.5532 0.239323 9.06186 0.10399 9.61253 0.10399Z" fill="url(#paint0_linear)"/>
<path d="M21.8288 3.96799C21.8288 4.19199 21.8148 4.42532 21.7868 4.66799H16.3688C16.4062 5.15332 16.5602 5.52666 16.8308 5.78799C17.1108 6.03999 17.4515 6.16599 17.8528 6.16599C18.4502 6.16599 18.8655 5.91399 19.0988 5.40999H21.6468C21.5162 5.92332 21.2782 6.38532 20.9328 6.79599C20.5968 7.20666 20.1722 7.52866 19.6588 7.76199C19.1455 7.99532 18.5715 8.11199 17.9368 8.11199C17.1715 8.11199 16.4902 7.94866 15.8928 7.62199C15.2955 7.29532 14.8288 6.82866 14.4928 6.22199C14.1568 5.61532 13.9888 4.90599 13.9888 4.09399C13.9888 3.28199 14.1522 2.57266 14.4788 1.96599C14.8148 1.35932 15.2815 0.892656 15.8788 0.565989C16.4762 0.239323 17.1622 0.0759888 17.9368 0.0759888C18.6928 0.0759888 19.3648 0.234656 19.9528 0.55199C20.5408 0.869323 20.9982 1.32199 21.3248 1.90999C21.6608 2.49799 21.8288 3.18399 21.8288 3.96799ZM19.3788 3.33799C19.3788 2.92732 19.2388 2.60066 18.9588 2.35799C18.6788 2.11532 18.3288 1.99399 17.9088 1.99399C17.5075 1.99399 17.1668 2.11066 16.8868 2.34399C16.6162 2.57732 16.4482 2.90866 16.3828 3.33799H19.3788Z" fill="url(#paint1_linear)"/>
<path d="M6.69457 15.104C7.60924 15.104 8.33724 15.4027 8.87857 16C9.42924 16.588 9.70457 17.4 9.70457 18.436V23H7.32457V18.758C7.32457 18.2353 7.18924 17.8293 6.91857 17.54C6.6479 17.2507 6.2839 17.106 5.82657 17.106C5.36924 17.106 5.00524 17.2507 4.73457 17.54C4.4639 17.8293 4.32857 18.2353 4.32857 18.758V23H1.93457V15.188H4.32857V16.224C4.57124 15.8787 4.8979 15.608 5.30857 15.412C5.71924 15.2067 6.18124 15.104 6.69457 15.104Z" fill="url(#paint2_linear)"/>
<path d="M19.0822 15.188V23H16.6882V21.936C16.4455 22.2813 16.1142 22.5613 15.6942 22.776C15.2835 22.9813 14.8262 23.084 14.3222 23.084C13.7248 23.084 13.1975 22.9533 12.7402 22.692C12.2828 22.4213 11.9282 22.034 11.6762 21.53C11.4242 21.026 11.2982 20.4333 11.2982 19.752V15.188H13.6782V19.43C13.6782 19.9527 13.8135 20.3587 14.0842 20.648C14.3548 20.9373 14.7188 21.082 15.1762 21.082C15.6428 21.082 16.0115 20.9373 16.2822 20.648C16.5528 20.3587 16.6882 19.9527 16.6882 19.43V15.188H19.0822ZM16.8562 13.242L13.4822 14.656V13.004L16.8562 11.38V13.242Z" fill="url(#paint3_linear)"/>
<path d="M16.0324 32.092V34.08H4.97235V32.092H16.0324Z" fill="url(#paint4_linear)"/>
</g>
<defs>
<linearGradient id="paint0_linear" x1="10.7367" y1="0.0759888" x2="10.7367" y2="34.08" gradientUnits="userSpaceOnUse">
<stop stop-color="#2422E3"/>
<stop offset="1" stop-color="#6C32F7"/>
</linearGradient>
<linearGradient id="paint1_linear" x1="10.7367" y1="0.0759888" x2="10.7367" y2="34.08" gradientUnits="userSpaceOnUse">
<stop stop-color="#2422E3"/>
<stop offset="1" stop-color="#6C32F7"/>
</linearGradient>
<linearGradient id="paint2_linear" x1="10.7367" y1="0.0759888" x2="10.7367" y2="34.08" gradientUnits="userSpaceOnUse">
<stop stop-color="#2422E3"/>
<stop offset="1" stop-color="#6C32F7"/>
</linearGradient>
<linearGradient id="paint3_linear" x1="10.7367" y1="0.0759888" x2="10.7367" y2="34.08" gradientUnits="userSpaceOnUse">
<stop stop-color="#2422E3"/>
<stop offset="1" stop-color="#6C32F7"/>
</linearGradient>
<linearGradient id="paint4_linear" x1="10.7367" y1="0.0759888" x2="10.7367" y2="34.08" gradientUnits="userSpaceOnUse">
<stop stop-color="#2422E3"/>
<stop offset="1" stop-color="#6C32F7"/>
</linearGradient>
<clipPath id="clip0">
<rect width="22" height="34" fill="white"/>
</clipPath>
</defs>
</svg>
